<?xml version="1.0" standalone="no"?><svg xmlns="http://www.w3.org/2000/svg" viewBox="0 0 1440 320"><path fill="#0099ff" fill-opacity="1" d="M0,128L40,144C80,160,160,192,240,186.7C320,181,400,139,480,122.7C560,107,640,117,720,117.3C800,117,880,107,960,106.7C1040,107,1120,117,1200,122.7C1280,128,1360,128,1400,128L1440,128L1440,320L1400,320C1360,320,1280,320,1200,320C1120,320,1040,320,960,320C880,320,800,320,720,320C640,320,560,320,480,320C400,320,320,320,240,320C160,320,80,320,40,320L0,320Z"></path></svg>